<svg id="Layer_2" data-name="Layer 2" xmlns="http://www.w3.org/2000/svg" viewBox="0 0 688.03 302.01"><defs><style>.cls-1,.cls-2{fill:none;stroke:#000;stroke-linecap:round;stroke-miterlimit:10;}.cls-1{stroke-width:14px;}.cls-2{stroke-width:16px;}</style></defs><title>Valerie3</title><path class="cls-1" d="M6.33,109.33S0,244.67,11,292.67c2.86,12.48,10.67-6.67,32-40,0,0,49.33-78.67,60.67-112.67,0,0,23.33-56.67,18-87.33,0,0-4.34-21.34-29-20,0,0-21,6.66-24,25,0,0-16.41,60.59-7.67,113,0,0,2,29.64,22.67,42.82,0,0,23.57,13.18,30.12,11.18,0,0,3.38,10.15,15.54-23.34,0,0,22.35-46.31,44.34-46.66,0,0,22.66,0,22.66,13.33,0,0,1-18.15,5.34-17,11.3,3.05-10.34,45.67-10.34,45.67s8.18-27.41.34-34c0,0-14.08-12.4-29-1.15,0,0-23,11.84-38.67,54.51,0,0-14.43,24.33-10.21,43.67,0,0,2.73,16.73,12.88,23.33,0,0,11.33,10,36.66-26.67,0,0,19.34-33.33,27.67-59.33,0,0-12,55-11.67,66.67,0,0-3.66,24.66,4.67,29,0,0,9,8.33,19.33-14,0,0,25.34-68.34,31.34-72.34,0,0,58-53,63.33-59.33,0,0,33.76-39.49,46-84,0,0,11.71-42-1.32-56.33,0,0-16.37-8.67-34,20,0,0-48,79.52-52,121,0,0-21.34,100.33-17,115.33,0,0,.66,25.67,8,25.67,0,0,20.33-9.34,43.66-41,0,0,19-28.76,24-29.21,0,0,29.38.54,33.52-2.13,0,0,23.15-15,24.48-35,0,0,2.43-14.29-2.33-22.66,0,0-11-13.67-29.67,7.66,0,0-5.62,4.47-20.33,39.67,0,0-9,48.29,7,68.64,0,0,16,21.82,40.7-3.64,0,0,50-84.67,56.63-115.67,0,0,16.67-52.07,13.67-60,0,0-4-17.3-22.33-9,0,0-15.67,10.3-7.67,36.34,0,0,12.67,27.66,39,36.33,0,0,18,5.67,12.67,26.33,0,0-15.67,61.67-13.34,71.34,0,0,2.34,16,8.34,21,0,0,6.66,7.95,14.33-3,0,0,20.67-38,23.67-41,0,0,14-11.34,15-16,0,0,16.69-65.5,18.66-62,6.67,11.83-20,66-19,72.66,0,0-7.34,33,1,43.67,0,0,5,10.33,18-5.33,0,0,30.34-43.34,33.34-44.34,0,0,12.08-9.07,31.33-11.33,0,0,13,2.23,35-35.05,0,0,8.39-24.62-15-22.28,0,0-20.63-2-32,26,0,0-12,26-11.35,68.33,0,0,2,26,19,29.67,0,0,15.66,5.33,28.33-7,0,0,43.67-55,63-55.34"/><path class="cls-2" d="M551.67,77s0-2.67-3.34-2"/></svg>