<svg id="Layer_1" data-name="Layer 1" xmlns="http://www.w3.org/2000/svg" viewBox="0 0 1000 400"><defs>
  <style>
    .cls-1 {fill:none;stroke:#000;stroke-miterlimit:10;}
    .cls-1 {stroke-width:5px;margin-top: 5rem;}

     .cls-1 {
        stroke-dasharray: 3000;
        stroke-dashoffset: 1000;
        animation: anim_val 5s linear forwards;
      }

      @keyframes anim_val {
      from {
         stroke-dashoffset: 1000;
       }
       to {
         stroke-dashoffset: 0;
       }
      }
  </style></defs>
  <title>Valerie</title>
  <path class="cls-1" d="M188.77,303.86c-10.48-3.44-13.55-11.69-13.65-21.42-.09-8.45.8-16.9,1.19-26-1.48,2.35-2.57,4.32-3.95,6.09-5.74,7.27-11.08,15.13-17.6,21.62-7.81,7.67-17.8,11.2-28.58,6.49-11.27-5-17-14.75-17.2-26.64-.1-7.86,2-15.82,3.16-23.68.2-1.28.6-2.46.89-4.13-13.34-2.16-25.7-6.09-36-15.92-1.28,2.16-2.17,3.83-3.26,5.41q-20.46,31.55-41.13,63a60.83,60.83,0,0,1-7.61,9c-3.07,3.15-7.12,4.52-11.27,2.85-3.86-1.47-5.64-4.91-5.84-8.94-1.18-26.44-3-53-3.36-79.41-.39-24.86.79-49.73,1-74.69.1-6.88-.79-13.66-1.48-20.54-.6-6,1.38-9.83,6.13-10.51,5.14-.79,8.7,2.16,9.29,8.35.79,8.75,1.38,17.59,1.38,26.44.1,39.21-.19,78.32-.19,117.44,0,6,.69,11.89,1.18,19.46,2-2.56,3.07-3.94,4-5.31q19.88-31.26,39.74-62.7a6.3,6.3,0,0,0,.5-4.82C56,179.54,53.81,152.71,55.89,125.59a426.77,426.77,0,0,1,7.51-51.3,68.39,68.39,0,0,1,15-30.57c8.3-9.92,18.29-17.29,32-13.46,14,3.93,19.48,15.43,21.66,28.4,3,17.4-.89,34.3-5.54,50.81-9.3,32.53-24.62,62.7-39.55,93-1.58,3.25-1.48,5,1.19,7.47,7.91,7.18,17.69,9.73,27.88,11.5.89.2,2.67-1.77,3.36-3,5.34-10.71,9.79-21.91,15.82-32.13a110.36,110.36,0,0,1,18.09-23.1c14.83-14.25,28.18-15.62,46.37-6.29,1.09-2.55,1.59-5.4,3.27-7.47,1.28-1.57,3.85-2.16,5.83-3.24.89,2.06,2.67,4.13,2.37,6.09-1.18,8.85-2.77,17.59-4.55,26.34-2.37,11.7-5.73,23.1-7.61,34.89-3.36,21.33-6,42.75-8.8,64.08-.39,3.24.3,6.68.5,10l1.48.59c1.88-2.06,4.45-3.83,5.63-6.29,3.47-7,6.63-14.15,9.5-21.42,6.72-16.91,12.45-34.11,20-50.62,3.36-7.37,9.89-13.26,14.83-19.95,1.48-2,3.16-4.22,3.56-6.58,8.5-46.39,25.21-90,46.57-131.89,4.74-9.24,10.87-18,16.9-26.53,7.42-10.52,16.71-19,29.67-22.31h3.95c13.25,4.81,18.79,12.67,18.29,29.38-.29,10.22-1.28,20.84-4.55,30.37-13.44,38.52-32.53,74-60,104.57-9.39,10.51-20.67,18.77-33,25.55a9.39,9.39,0,0,0-5.24,7.57c-3.56,22.5-7.82,44.91-7.42,67.71.1,4.32,1.29,8.55,2.18,14.25,4.44-2.75,8.3-4.13,10.87-6.88a258.14,258.14,0,0,0,19.28-22.21c7.12-9.34,13.35-19.46,20.27-29,3.56-4.82,7.91-9,11.86-13.57a13.1,13.1,0,0,0,2-4.32c5.24-16.61,13.74-31.15,26.8-42.85,5.83-5.21,12.16-9.63,20.26-10.42,11.47-1.18,20,5.8,20.87,17.2,1.68,22.51-14.54,48.35-36,55.82-6.53,2.26-14,1.67-22.15,2.56.2,3.83-.3,9.14.89,14.05,2.08,8.45,4,17.4,8.3,25,6.33,11.31,14.24,14.26,24.72,4.82,5.94-5.31,11.77-11.3,15.53-18.18,17.3-31.84,33.71-64.08,44.69-98.67,1-3.05-.2-4.42-2.08-6.19-14.73-14.35-19.28-36.66-11.07-53.27,3.56-7.07,8.8-12.19,16.9-13.76,12.26-2.36,22.74,4.52,23.34,16.91.39,8.64-1.09,17.49-2.28,26.14a73,73,0,0,1-4.25,15.13c-1.78,4.52-.49,7,3.86,8.45a26.86,26.86,0,0,1,4.35,2.26c18.78,9.64,24.52,20.84,20.66,41.67-2.67,14.75-6.43,29.39-8.6,44.33-1.29,9.14-.79,18.47-.59,27.81,0,2.46,1.68,4.82,3,8.35,2.38-2.85,4.35-4.71,5.74-7,6-10.13,11.86-20.45,17.79-30.57,4-6.68,8.7-12.68,15.72-16.61,1.29-.69,2.08-2.75,2.48-4.32a317.81,317.81,0,0,1,18.09-57.49c2.17-5.21,6-7.28,10.38-5.7s6.13,6.19,3.86,11.49a280.77,280.77,0,0,0-17.31,56.22c-2.27,12.19-4.15,24.47-5.43,36.85-.4,4.23,1.48,8.75,2.27,13.17l2.08.59c4.55-5.21,9.59-10.22,13.64-15.82,7.61-10.52,14.63-21.43,21.95-32.14,1.09-1.57,2.18-3.44,3.76-4.52,7.12-4.81,9-12.18,11-19.85,4.16-15.92,10.68-30.66,24.62-40.88,7.71-5.7,15.92-9.83,26.1-7.57,13.45,3.05,20.37,15.13,16.22,28.11a76.72,76.72,0,0,1-22.25,34.2c-8.6,7.66-18.59,12.38-30.25,12.58-3.26,0-5,1.08-4.75,4.52.3,9.43-.2,19,1.09,28.2,1.09,7.77,12.06,15.83,19.87,15.92a9.78,9.78,0,0,0,5.94-2,239.46,239.46,0,0,0,19.87-16c5-4.72,9.09-10.32,13.64-15.53,11-12.77,25.12-21,40.34-27.61,5.14-2.27,8.41.49,11.08,4.42v2.95c-1.59,1.86-2.77,4.42-4.75,5.3-19.58,9.14-34.6,23.39-47.95,40-7.62,9.53-17.21,17.3-28.87,21.72-4.06,1.57-9.3,2.56-13.35,1.38-21-5.9-30.35-15.14-32.63-35.58-.49-4.23-.79-8.45-1.28-13.46-6.73,10.12-12.56,19.55-19.48,28.4a81.41,81.41,0,0,1-16.12,15.72c-8.1,6-16.21,3.93-21.35-4.71a42.4,42.4,0,0,1-4.95-13.17c-1.08-5.61-1-11.4-1.58-18.18-4.94,8.84-9.1,17-14.14,24.56-3.36,5.12-7.22,10.32-12,14.16-7.91,6.38-17.2,4.42-22.15-4.43a51,51,0,0,1-5.63-15c-2.77-15.43.59-30.57,3.46-45.7,2.17-11.4,4.74-22.7,6.82-34.1,1-5.41.69-11.31-4-15-4.84-3.93-10.67-6.68-16.21-10a18.1,18.1,0,0,0-1.19,2.75c-9.89,31.54-25.51,60.63-40,90.12-6.33,12.77-14.83,23.88-26.5,32.53-18,13.36-33.81,4.91-41.92-7.18-4.55-7-7.42-15.23-10-23.29-1.87-5.7-2-12-3.06-19.16-6.33,9.33-12.06,17.88-17.8,26.43-7.22,10.62-15.32,20.54-26.2,27.82-17.2,11.49-30.85,5.7-33-14.75-1.09-10.41-.1-21.22.39-31.74.4-7.07,1.59-14.15,2.38-21.23a61.38,61.38,0,0,0-6.92,14c-5.44,14.74-10.29,29.68-16,44.22-4.35,10.91-11.27,20.05-23.53,23.39Zm73.56-126.58,2.08,1.28c7.31-6.49,15.22-12.48,21.75-19.65,25.7-28.31,41.92-62,55.46-97.1a72.47,72.47,0,0,0,4.55-35.19c-.39-3.34-1.88-8.55-3.95-9.14-2.77-.88-7.71.89-10,3.25C325.9,27,319.48,33.6,314.73,41.17c-19.58,31-32,65.06-42.71,99.85C268.16,152.91,265.49,165.19,262.33,177.28ZM76.25,187.6h1.58c3.47-7.57,7-15.13,10.49-22.7,10.87-23.78,21.94-47.57,26.79-73.51,2.17-11.4,4.25-22.9.89-34.5-1.58-5.5-4-10.91-10.09-12.38s-10.08,2.75-13.84,6.78C85.05,59,80.8,68.2,78.23,78.12c-7.71,29.48-9.1,59.46-5.54,89.63C73.39,174.33,75.07,181,76.25,187.6Zm46.67,71.84,1.38.4c0,1.18-.09,2.26,0,3.44.5,5.7,2.57,10.71,8.11,13.16s9.69-1.08,13.05-4.61a112.24,112.24,0,0,0,12.46-15.73c5.74-8.75,10.28-18.38,16.41-26.83a88.51,88.51,0,0,0,16-38.52c.59-3.84,1.48-7.67,2.37-11.5,2.18-9.14-3.06-15.33-12.45-14.25-3.37.39-7,1.37-9.59,3.34-5.64,4.42-11.87,8.94-15.53,14.84a340.66,340.66,0,0,0-21.45,41.28C129.05,235.66,126.48,247.75,122.92,259.44ZM372.67,176.5c.3-11.89-4.15-14.84-12.56-10.52a41,41,0,0,0-8.1,5.5,69.68,69.68,0,0,0-21.16,33c-1,3.24-1.09,6.88-1.58,10.31,4.44.5,8.89,1.48,13.34,1.28,2.38-.1,5.05-1.57,7.12-3C363.38,203.42,371.78,190.75,372.67,176.5ZM584,207.26l1.18,1.47c4.16-1.37,8.61-2.16,12.36-4.22,13-7.38,21-19,25.41-33,1.59-4.91-2.37-8.94-7.91-8a21.54,21.54,0,0,0-8,3.44c-14.74,9.54-19.28,24.67-23,40.3ZM427.74,134.43c1.88-7.37,3.86-13.85,5.14-20.54a59,59,0,0,0,.6-13.16c-.1-1.58-1.59-4.13-2.77-4.43-2-.39-4.45.4-6.33,1.38-1.38.78-2.37,2.65-3.16,4.22C416.57,111.34,419.34,126.08,427.74,134.43Z" transform="translate(-1.47 -0.05)"/>
  <path class="cls-1" d="M554.1,87c-4.5.1-9.3-4.3-9.4-8.5-.1-4.8,4.5-9.2,9.8-9.3a8.26,8.26,0,0,1,8.6,7.9v.5C563.1,82.4,558.8,86.9,554.1,87Z" transform="translate(-1.47 -0.05)"/></svg>
